<?xml version="1.0"?>
<svg xmlns:xlink="http://www.w3.org/1999/xlink" xmlns:ev="http://www.w3.org/2001/xml-events" xmlns="http://www.w3.org/2000/svg" height="6400" viewBox="0 0 1600 6400" width="1600">
	<script>
		function handleKdn(event) {return parent.window.handleKdn(event)};

		function handleBoxMdn(event,jnum) {return parent.window.handleBoxMdn(document,event,jnum)};
		function handleBoxMove(event,jnum) {return parent.window.handleBoxMove(document,event,jnum)};
		function handleBoxMup(event,jnum) {return parent.window.handleBoxMup(document,jnum)};

		function handleRowMov(event,jnum,jnumBox) {return parent.window.handleRowMov(event,jnum,jnumBox)};
		function handleRowMou(jnum,jnumBox) {return parent.window.handleRowMou(jnum,jnumBox)};
		function handleRowClick(event,jnum,jnumBox,num) {return parent.window.handleRowClick(event,jnum,jnumBox,num)};

		document.onkeydown = handleKdn;
	</script>
	<style>
		<!-- require inline CSS for standalone view and export to .pdf -->
		g {
			cursor:pointer;
		}
		.box {
			stroke:#000000;
			fill:#FFFFFF;
			stroke-width:1.333px;
			filter:drop-shadow(5px 5px 4px #3F3F3F);
		}
		.boxlite {
			stroke:#7F7F7F;
			fill:#FFFFFF;
			stroke-width:1.333px;
			filter:drop-shadow(5px 5px 4px #BFBFBF);
		}
		.link {
			stroke:#000000;
			stroke-width:0.5px;
		}
		.linklite {
			stroke:#7F7F7F;
			stroke-width:0.5px;
		}
		.icon {
			stroke:#000000;
			fill:#FFFFFF;
			stroke-width:1px;
			cursor:pointer;
		}
		.icon:hover {
			stroke:#FF7F00;
		}
		.bihdr {
			font-family:Helvetica,sans-serif;
			font-size:11px;
			font-weight:bold;
			fill:#000000;
			text-anchor:middle;
		}
		.bihdrlite {
			font-family:Helvetica,sans-serif;
			font-size:11px;
			font-weight:bold;
			fill:#7F7F7F;
			text-anchor:middle;
		}
		.bi {
			font-family:Helvetica,sans-serif;
			font-size:9px;
			fill:#000000;
		}
		.bifil {
			font-family:Helvetica,sans-serif;
			font-size:9px;
			fill:#007FFF;
		}
		.bitbl {
			font-family:Helvetica,sans-serif;
			font-size:9px;
			fill:#0000FF;
		}
		.biretr {
			font-family:Helvetica,sans-serif;
			font-size:9px;
			fill:#FF7F00;
		}
		.bivec {
			font-family:Helvetica,sans-serif;
			font-size:9px;
			fill:#7F7F7F;
		}
		.biaffil {
			font-family:Helvetica,sans-serif;
			font-size:9px;
			fill:#0000FF;
		}
		.bipref {
			font-family:Helvetica,sans-serif;
			font-size:9px;
			fill:#007FFF;
		}
		.biinc {
			font-family:Helvetica,sans-serif;
			font-size:9px;
			fill:#00FFFF;
		}
		.bijovr {
			font-family:Helvetica,sans-serif;
			font-size:9px;
			fill:#007F00;
		}
		.biaxis {
			font-family:Helvetica,sans-serif;
			font-size:9px;
			fill:#007F00;
		}
		.bityp {
			font-family:Helvetica,sans-serif;
			font-size:9px;
			fill:#FF7F00;
		}
	</style>
	<line id="lnk2654" x1="185" y1="111" x2="265" y2="115" class="link"/>
	<line id="lnk2655" x1="435" y1="115" x2="515" y2="113" class="link"/>
	<g id="box3842" transform="translate(15,51)" onmousedown="handleBoxMdn(event,3842)">
		<path d="M0.0,0L170,0L170,22L0.0,22L0.0,0z" class="box"/>
		<path d="M150.5,3L165.5,3M150.5,18L165.5,18M154.5,6L160.5,6L160.5,12L154.5,12L154.5,6M162.5,9L165.5,9L165.5,15L159.5,15L159.5,14" class="icon" onclick="handleRowClick(event,1,3842,1)"/>
		<path d="M3.5,3L18.5,3M3.5,18L18.5,18M7.5,6L13.5,6L13.5,12L7.5,12L7.5,6M15.5,9L18.5,9L18.5,15L12.5,15L12.5,14M4.5,6L5.5,6M4.5,9L5.5,9M4.5,12L5.5,12M4.5,15L10.5,15" class="icon" onclick="handleRowClick(event,1,3842,2)"/>
		<text xml:space="preserve">
			<tspan x="85" y="14" class="bihdr">ImeIMSheet</tspan>
		</text>
		<path d="M0.0,22L170,22L170,44L0.0,44L0.0,22z" class="box"/>
		<text xml:space="preserve">
			<tspan x="4" y="36" class="bi">* ref</tspan>
		</text>
		<path d="M0.0,44L170,44L170,66L0.0,66L0.0,44z" class="box" onmousemove="handleRowMov(event,3,3842)" onmouseout="handleRowMou(3,3842)"/>
		<text xml:space="preserve">
			<tspan x="4" y="58" class="bitbl">* visRefWznmMVisual</tspan>
		</text>
		<path d="M0.0,66L170,66L170,88L0.0,88L0.0,66z" class="box" onmousemove="handleRowMov(event,4,3842)" onmouseout="handleRowMou(4,3842)"/>
		<text xml:space="preserve">
			<tspan x="4" y="80" class="bitbl">* visNum</tspan>
		</text>
		<path d="M0.0,88L170,88L170,110L0.0,110L0.0,88z" class="box" onmousemove="handleRowMov(event,5,3842)" onmouseout="handleRowMou(5,3842)"/>
		<text xml:space="preserve">
			<tspan x="4" y="102" class="bifil">* Title (tit)</tspan>
		</text>
	</g>
	<g id="box3843" transform="translate(265,15)" onmousedown="handleBoxMdn(event,3843)">
		<path d="M0.0,0L170,0L170,22L0.0,22L0.0,0z" class="box"/>
		<path d="M150.5,3L165.5,3M150.5,18L165.5,18M154.5,6L160.5,6L160.5,12L154.5,12L154.5,6M162.5,9L165.5,9L165.5,15L159.5,15L159.5,14" class="icon" onclick="handleRowClick(event,6,3843,1)"/>
		<path d="M3.5,3L18.5,3M3.5,18L18.5,18M7.5,6L13.5,6L13.5,12L7.5,12L7.5,6M15.5,9L18.5,9L18.5,15L12.5,15L12.5,14M4.5,6L5.5,6M4.5,9L5.5,9M4.5,12L5.5,12M4.5,15L10.5,15" class="icon" onclick="handleRowClick(event,6,3843,2)"/>
		<text xml:space="preserve">
			<tspan x="85" y="14" class="bihdr">ImeIMBox</tspan>
		</text>
		<path d="M0.0,22L170,22L170,56L0.0,56L0.0,22z" class="box" onmousemove="handleRowMov(event,7,3843)" onmouseout="handleRowMou(7,3843)"/>
		<text xml:space="preserve">
			<tspan x="4" y="36" class="bifil">iref (irf)</tspan>
			<tspan x="4" y="48" class="bi">* ref</tspan>
		</text>
		<path d="M0.0,56L170,56L170,78L0.0,78L0.0,56z" class="box" onmousemove="handleRowMov(event,8,3843)" onmouseout="handleRowMou(8,3843)"/>
		<text xml:space="preserve">
			<tspan x="4" y="70" class="bitbl">* refWznmMSheet</tspan>
		</text>
		<path d="M0.0,78L170,78L170,112L0.0,112L0.0,78z" class="box" onmousemove="handleRowMov(event,9,3843)" onmouseout="handleRowMou(9,3843)"/>
		<text xml:space="preserve">
			<tspan x="4" y="92" class="bifil">srefUnvIxWznmVMaintable (mtb)</tspan>
			<tspan x="4" y="104" class="bi">* unvIxWznmVMaintable</tspan>
		</text>
		<path d="M0.0,112L170,112L170,146L0.0,146L0.0,112z" class="box" onmousemove="handleRowMov(event,10,3843)" onmouseout="handleRowMou(10,3843)"/>
		<text xml:space="preserve">
			<tspan x="4" y="126" class="bifil">srefUnvUref (unv)</tspan>
			<tspan x="4" y="138" class="bi">* unvUref</tspan>
		</text>
		<path d="M0.0,146L170,146L170,168L0.0,168L0.0,146z" class="box" onmousemove="handleRowMov(event,11,3843)" onmouseout="handleRowMou(11,3843)"/>
		<text xml:space="preserve">
			<tspan x="4" y="160" class="bifil">* x (x)</tspan>
		</text>
		<path d="M0.0,168L170,168L170,190L0.0,190L0.0,168z" class="box" onmousemove="handleRowMov(event,12,3843)" onmouseout="handleRowMou(12,3843)"/>
		<text xml:space="preserve">
			<tspan x="4" y="182" class="bifil">* y (y)</tspan>
		</text>
	</g>
	<g id="box3844" transform="translate(515,25)" onmousedown="handleBoxMdn(event,3844)">
		<path d="M0.0,0L170,0L170,22L0.0,22L0.0,0z" class="box"/>
		<path d="M150.5,3L165.5,3M150.5,18L165.5,18M154.5,6L160.5,6L160.5,12L154.5,12L154.5,6M162.5,9L165.5,9L165.5,15L159.5,15L159.5,14" class="icon" onclick="handleRowClick(event,13,3844,1)"/>
		<text xml:space="preserve">
			<tspan x="85" y="14" class="bihdr">ImeIRMBoxMBox</tspan>
		</text>
		<path d="M0.0,22L170,22L170,44L0.0,44L0.0,22z" class="box"/>
		<text xml:space="preserve">
			<tspan x="4" y="36" class="bi">* ref</tspan>
		</text>
		<path d="M0.0,44L170,44L170,66L0.0,66L0.0,44z" class="box" onmousemove="handleRowMov(event,15,3844)" onmouseout="handleRowMou(15,3844)"/>
		<text xml:space="preserve">
			<tspan x="4" y="58" class="bitbl">* orgRefWznmMBox</tspan>
		</text>
		<path d="M0.0,66L170,66L170,100L0.0,100L0.0,66z" class="box" onmousemove="handleRowMov(event,16,3844)" onmouseout="handleRowMou(16,3844)"/>
		<text xml:space="preserve">
			<tspan x="4" y="80" class="bifil">irefDstRefWznmMBox (dst)</tspan>
			<tspan x="4" y="92" class="bi">* dstRefWznmMBox</tspan>
		</text>
		<path d="M0.0,100L170,100L170,122L0.0,122L0.0,100z" class="box" onmousemove="handleRowMov(event,17,3844)" onmouseout="handleRowMou(17,3844)"/>
		<text xml:space="preserve">
			<tspan x="4" y="114" class="bifil">* orgClk (ocl)</tspan>
		</text>
		<path d="M0.0,122L170,122L170,144L0.0,144L0.0,122z" class="box" onmousemove="handleRowMov(event,18,3844)" onmouseout="handleRowMou(18,3844)"/>
		<text xml:space="preserve">
			<tspan x="4" y="136" class="bifil">* dstClk (dcl)</tspan>
		</text>
		<path d="M0.0,144L170,144L170,166L0.0,166L0.0,144z" class="box" onmousemove="handleRowMov(event,19,3844)" onmouseout="handleRowMou(19,3844)"/>
		<text xml:space="preserve">
			<tspan x="4" y="158" class="bifil">* Weight (wgt)</tspan>
		</text>
	</g>
</svg>
