<?xml version="1.0"?>
<svg xmlns:xlink="http://www.w3.org/1999/xlink" xmlns:ev="http://www.w3.org/2001/xml-events" xmlns="http://www.w3.org/2000/svg" height="6400" viewBox="0 0 1600 6400" width="1600">
	<script>
		function handleKdn(event) {return parent.window.handleKdn(event)};

		function handleBoxMdn(event,jnum) {return parent.window.handleBoxMdn(document,event,jnum)};
		function handleBoxMove(event,jnum) {return parent.window.handleBoxMove(document,event,jnum)};
		function handleBoxMup(event,jnum) {return parent.window.handleBoxMup(document,jnum)};

		function handleRowMov(event,jnum,jnumBox) {return parent.window.handleRowMov(event,jnum,jnumBox)};
		function handleRowMou(jnum,jnumBox) {return parent.window.handleRowMou(jnum,jnumBox)};
		function handleRowClick(event,jnum,jnumBox,num) {return parent.window.handleRowClick(event,jnum,jnumBox,num)};

		document.onkeydown = handleKdn;
	</script>
	<style>
		<!-- require inline CSS for standalone view and export to .pdf -->
		g {
			cursor:pointer;
		}
		.box {
			stroke:#000000;
			fill:#FFFFFF;
			stroke-width:1.333px;
			filter:drop-shadow(5px 5px 4px #3F3F3F);
		}
		.boxlite {
			stroke:#7F7F7F;
			fill:#FFFFFF;
			stroke-width:1.333px;
			filter:drop-shadow(5px 5px 4px #BFBFBF);
		}
		.link {
			stroke:#000000;
			stroke-width:0.5px;
		}
		.linklite {
			stroke:#7F7F7F;
			stroke-width:0.5px;
		}
		.icon {
			stroke:#000000;
			fill:#FFFFFF;
			stroke-width:1px;
			cursor:pointer;
		}
		.icon:hover {
			stroke:#FF7F00;
		}
		.bihdr {
			font-family:Helvetica,sans-serif;
			font-size:11px;
			font-weight:bold;
			fill:#000000;
			text-anchor:middle;
		}
		.bihdrlite {
			font-family:Helvetica,sans-serif;
			font-size:11px;
			font-weight:bold;
			fill:#7F7F7F;
			text-anchor:middle;
		}
		.bi {
			font-family:Helvetica,sans-serif;
			font-size:9px;
			fill:#000000;
		}
		.bifil {
			font-family:Helvetica,sans-serif;
			font-size:9px;
			fill:#007FFF;
		}
		.bitbl {
			font-family:Helvetica,sans-serif;
			font-size:9px;
			fill:#0000FF;
		}
		.biretr {
			font-family:Helvetica,sans-serif;
			font-size:9px;
			fill:#FF7F00;
		}
		.bivec {
			font-family:Helvetica,sans-serif;
			font-size:9px;
			fill:#7F7F7F;
		}
		.biaffil {
			font-family:Helvetica,sans-serif;
			font-size:9px;
			fill:#0000FF;
		}
		.bipref {
			font-family:Helvetica,sans-serif;
			font-size:9px;
			fill:#007FFF;
		}
		.biinc {
			font-family:Helvetica,sans-serif;
			font-size:9px;
			fill:#00FFFF;
		}
		.bijovr {
			font-family:Helvetica,sans-serif;
			font-size:9px;
			fill:#007F00;
		}
		.biaxis {
			font-family:Helvetica,sans-serif;
			font-size:9px;
			fill:#007F00;
		}
		.bityp {
			font-family:Helvetica,sans-serif;
			font-size:9px;
			fill:#FF7F00;
		}
	</style>
	<line id="lnk2534" x1="185" y1="168" x2="265" y2="103" class="link"/>
	<line id="lnk2535" x1="185" y1="168" x2="265" y2="266" class="link"/>
	<g id="box3694" transform="translate(15,80)" onmousedown="handleBoxMdn(event,3694)">
		<path d="M0.0,0L170,0L170,22L0.0,22L0.0,0z" class="box"/>
		<path d="M150.5,3L165.5,3M150.5,18L165.5,18M154.5,6L160.5,6L160.5,12L154.5,12L154.5,6M162.5,9L165.5,9L165.5,15L159.5,15L159.5,14" class="icon" onclick="handleRowClick(event,1,3694,1)"/>
		<path d="M3.5,3L18.5,3M3.5,18L18.5,18M7.5,6L13.5,6L13.5,12L7.5,12L7.5,6M15.5,9L18.5,9L18.5,15L12.5,15L12.5,14M4.5,6L5.5,6M4.5,9L5.5,9M4.5,12L5.5,12M4.5,15L10.5,15" class="icon" onclick="handleRowClick(event,1,3694,2)"/>
		<text xml:space="preserve">
			<tspan x="85" y="14" class="bihdr">ImeIMComponent</tspan>
		</text>
		<path d="M0.0,22L170,22L170,44L0.0,44L0.0,22z" class="box"/>
		<text xml:space="preserve">
			<tspan x="4" y="36" class="bi">* ref</tspan>
		</text>
		<path d="M0.0,44L170,44L170,78L0.0,78L0.0,44z" class="box" onmousemove="handleRowMov(event,3,3694)" onmouseout="handleRowMou(3,3694)"/>
		<text xml:space="preserve">
			<tspan x="4" y="58" class="bifil">srefIxVBasetype (typ)</tspan>
			<tspan x="4" y="70" class="bi">* ixVBasetype</tspan>
		</text>
		<path d="M0.0,78L170,78L170,100L0.0,100L0.0,78z" class="box" onmousemove="handleRowMov(event,4,3694)" onmouseout="handleRowMou(4,3694)"/>
		<text xml:space="preserve">
			<tspan x="4" y="92" class="bitbl">* refWznmMVersion</tspan>
		</text>
		<path d="M0.0,100L170,100L170,122L0.0,122L0.0,100z" class="box" onmousemove="handleRowMov(event,5,3694)" onmouseout="handleRowMou(5,3694)"/>
		<text xml:space="preserve">
			<tspan x="4" y="114" class="bifil">* sref (srf)</tspan>
		</text>
		<path d="M0.0,122L170,122L170,144L0.0,144L0.0,122z" class="box" onmousemove="handleRowMov(event,6,3694)" onmouseout="handleRowMou(6,3694)"/>
		<text xml:space="preserve">
			<tspan x="4" y="136" class="bifil">* Title (tit)</tspan>
		</text>
		<path d="M0.0,144L170,144L170,166L0.0,166L0.0,144z" class="box" onmousemove="handleRowMov(event,7,3694)" onmouseout="handleRowMou(7,3694)"/>
		<text xml:space="preserve">
			<tspan x="4" y="158" class="bifil">* Comment (cmt)</tspan>
		</text>
	</g>
	<g id="box3695" transform="translate(265,15)" onmousedown="handleBoxMdn(event,3695)">
		<path d="M0.0,0L170,0L170,22L0.0,22L0.0,0z" class="box"/>
		<path d="M150.5,3L165.5,3M150.5,18L165.5,18M154.5,6L160.5,6L160.5,12L154.5,12L154.5,6M162.5,9L165.5,9L165.5,15L159.5,15L159.5,14" class="icon" onclick="handleRowClick(event,8,3695,1)"/>
		<text xml:space="preserve">
			<tspan x="85" y="14" class="bihdr">ImeIMRelease</tspan>
		</text>
		<path d="M0.0,22L170,22L170,44L0.0,44L0.0,22z" class="box"/>
		<text xml:space="preserve">
			<tspan x="4" y="36" class="bi">* ref</tspan>
		</text>
		<path d="M0.0,44L170,44L170,66L0.0,66L0.0,44z" class="box" onmousemove="handleRowMov(event,10,3695)" onmouseout="handleRowMou(10,3695)"/>
		<text xml:space="preserve">
			<tspan x="4" y="58" class="bitbl">* refWznmMComponent</tspan>
		</text>
		<path d="M0.0,66L170,66L170,100L0.0,100L0.0,66z" class="box" onmousemove="handleRowMov(event,11,3695)" onmouseout="handleRowMou(11,3695)"/>
		<text xml:space="preserve">
			<tspan x="4" y="80" class="bifil">hsrefRefWznmMMachine (mch)</tspan>
			<tspan x="4" y="92" class="bi">* refWznmMMachine</tspan>
		</text>
		<path d="M0.0,100L170,100L170,122L0.0,122L0.0,100z" class="box" onmousemove="handleRowMov(event,12,3695)" onmouseout="handleRowMou(12,3695)"/>
		<text xml:space="preserve">
			<tspan x="4" y="114" class="bifil">* sref (srf)</tspan>
		</text>
		<path d="M0.0,122L170,122L170,144L0.0,144L0.0,122z" class="box" onmousemove="handleRowMov(event,13,3695)" onmouseout="handleRowMou(13,3695)"/>
		<text xml:space="preserve">
			<tspan x="4" y="136" class="bifil">* srefsKOption (opt)</tspan>
		</text>
		<path d="M0.0,144L170,144L170,166L0.0,166L0.0,144z" class="box" onmousemove="handleRowMov(event,14,3695)" onmouseout="handleRowMou(14,3695)"/>
		<text xml:space="preserve">
			<tspan x="4" y="158" class="bifil">* Comment (cmt)</tspan>
		</text>
	</g>
	<g id="box3696" transform="translate(265,211)" onmousedown="handleBoxMdn(event,3696)">
		<path d="M0.0,0L170,0L170,22L0.0,22L0.0,0z" class="box"/>
		<path d="M150.5,3L165.5,3M150.5,18L165.5,18M154.5,6L160.5,6L160.5,12L154.5,12L154.5,6M162.5,9L165.5,9L165.5,15L159.5,15L159.5,14" class="icon" onclick="handleRowClick(event,15,3696,1)"/>
		<text xml:space="preserve">
			<tspan x="85" y="14" class="bihdr">ImeIRMComponentMLibrary</tspan>
		</text>
		<path d="M0.0,22L170,22L170,44L0.0,44L0.0,22z" class="box"/>
		<text xml:space="preserve">
			<tspan x="4" y="36" class="bi">* ref</tspan>
		</text>
		<path d="M0.0,44L170,44L170,66L0.0,66L0.0,44z" class="box" onmousemove="handleRowMov(event,17,3696)" onmouseout="handleRowMou(17,3696)"/>
		<text xml:space="preserve">
			<tspan x="4" y="58" class="bitbl">* refWznmMComponent</tspan>
		</text>
		<path d="M0.0,66L170,66L170,100L0.0,100L0.0,66z" class="box" onmousemove="handleRowMov(event,18,3696)" onmouseout="handleRowMou(18,3696)"/>
		<text xml:space="preserve">
			<tspan x="4" y="80" class="bifil">srefRefWznmMLibrary (lib)</tspan>
			<tspan x="4" y="92" class="bi">* refWznmMLibrary</tspan>
		</text>
	</g>
</svg>
