<?xml version="1.0"?>
<svg xmlns:xlink="http://www.w3.org/1999/xlink" xmlns:ev="http://www.w3.org/2001/xml-events" xmlns="http://www.w3.org/2000/svg" height="6400" viewBox="0 0 1600 6400" width="1600">
	<script>
		function handleKdn(event) {return parent.window.handleKdn(event)};

		function handleBoxMdn(event,jnum) {return parent.window.handleBoxMdn(document,event,jnum)};
		function handleBoxMove(event,jnum) {return parent.window.handleBoxMove(document,event,jnum)};
		function handleBoxMup(event,jnum) {return parent.window.handleBoxMup(document,jnum)};

		function handleRowMov(event,jnum,jnumBox) {return parent.window.handleRowMov(event,jnum,jnumBox)};
		function handleRowMou(jnum,jnumBox) {return parent.window.handleRowMou(jnum,jnumBox)};
		function handleRowClick(event,jnum,jnumBox,num) {return parent.window.handleRowClick(event,jnum,jnumBox,num)};

		document.onkeydown = handleKdn;
	</script>
	<style>
		<!-- require inline CSS for standalone view and export to .pdf -->
		g {
			cursor:pointer;
		}
		.box {
			stroke:#000000;
			fill:#FFFFFF;
			stroke-width:1.333px;
			filter:drop-shadow(5px 5px 4px #3F3F3F);
		}
		.boxlite {
			stroke:#7F7F7F;
			fill:#FFFFFF;
			stroke-width:1.333px;
			filter:drop-shadow(5px 5px 4px #BFBFBF);
		}
		.link {
			stroke:#000000;
			stroke-width:0.5px;
		}
		.linklite {
			stroke:#7F7F7F;
			stroke-width:0.5px;
		}
		.icon {
			stroke:#000000;
			fill:#FFFFFF;
			stroke-width:1px;
			cursor:pointer;
		}
		.icon:hover {
			stroke:#FF7F00;
		}
		.bihdr {
			font-family:Helvetica,sans-serif;
			font-size:11px;
			font-weight:bold;
			fill:#000000;
			text-anchor:middle;
		}
		.bihdrlite {
			font-family:Helvetica,sans-serif;
			font-size:11px;
			font-weight:bold;
			fill:#7F7F7F;
			text-anchor:middle;
		}
		.bi {
			font-family:Helvetica,sans-serif;
			font-size:9px;
			fill:#000000;
		}
		.bifil {
			font-family:Helvetica,sans-serif;
			font-size:9px;
			fill:#007FFF;
		}
		.bitbl {
			font-family:Helvetica,sans-serif;
			font-size:9px;
			fill:#0000FF;
		}
		.biretr {
			font-family:Helvetica,sans-serif;
			font-size:9px;
			fill:#FF7F00;
		}
		.bivec {
			font-family:Helvetica,sans-serif;
			font-size:9px;
			fill:#7F7F7F;
		}
		.biaffil {
			font-family:Helvetica,sans-serif;
			font-size:9px;
			fill:#0000FF;
		}
		.bipref {
			font-family:Helvetica,sans-serif;
			font-size:9px;
			fill:#007FFF;
		}
		.biinc {
			font-family:Helvetica,sans-serif;
			font-size:9px;
			fill:#00FFFF;
		}
		.bijovr {
			font-family:Helvetica,sans-serif;
			font-size:9px;
			fill:#007F00;
		}
		.biaxis {
			font-family:Helvetica,sans-serif;
			font-size:9px;
			fill:#007F00;
		}
		.bityp {
			font-family:Helvetica,sans-serif;
			font-size:9px;
			fill:#FF7F00;
		}
	</style>
	<line id="lnk2622" x1="185" y1="355" x2="265" y2="103" class="link"/>
	<line id="lnk2623" x1="185" y1="355" x2="265" y2="465" class="link"/>
	<line id="lnk2624" x1="435" y1="465" x2="515" y2="323" class="link"/>
	<line id="lnk2625" x1="435" y1="465" x2="515" y2="489" class="link"/>
	<line id="lnk2626" x1="435" y1="465" x2="515" y2="623" class="link"/>
	<g id="box3805" transform="translate(15,251)" onmousedown="handleBoxMdn(event,3805)">
		<path d="M0.0,0L170,0L170,22L0.0,22L0.0,0z" class="box"/>
		<path d="M150.5,3L165.5,3M150.5,18L165.5,18M154.5,6L160.5,6L160.5,12L154.5,12L154.5,6M162.5,9L165.5,9L165.5,15L159.5,15L159.5,14" class="icon" onclick="handleRowClick(event,1,3805,1)"/>
		<path d="M3.5,3L18.5,3M3.5,18L18.5,18M7.5,6L13.5,6L13.5,12L7.5,12L7.5,6M15.5,9L18.5,9L18.5,15L12.5,15L12.5,14M4.5,6L5.5,6M4.5,9L5.5,9M4.5,12L5.5,12M4.5,15L10.5,15" class="icon" onclick="handleRowClick(event,1,3805,2)"/>
		<text xml:space="preserve">
			<tspan x="85" y="14" class="bihdr">ImeIMProject</tspan>
		</text>
		<path d="M0.0,22L170,22L170,44L0.0,44L0.0,22z" class="box"/>
		<text xml:space="preserve">
			<tspan x="4" y="36" class="bi">* ref</tspan>
		</text>
		<path d="M0.0,44L170,44L170,66L0.0,66L0.0,44z" class="box" onmousemove="handleRowMov(event,3,3805)" onmouseout="handleRowMou(3,3805)"/>
		<text xml:space="preserve">
			<tspan x="4" y="58" class="bitbl">* grp</tspan>
		</text>
		<path d="M0.0,66L170,66L170,88L0.0,88L0.0,66z" class="box" onmousemove="handleRowMov(event,4,3805)" onmouseout="handleRowMou(4,3805)"/>
		<text xml:space="preserve">
			<tspan x="4" y="80" class="bitbl">* own</tspan>
		</text>
		<path d="M0.0,88L170,88L170,110L0.0,110L0.0,88z" class="box" onmousemove="handleRowMov(event,5,3805)" onmouseout="handleRowMou(5,3805)"/>
		<text xml:space="preserve">
			<tspan x="4" y="102" class="bitbl">* refWznmMVersion</tspan>
		</text>
		<path d="M0.0,110L170,110L170,132L0.0,132L0.0,110z" class="box" onmousemove="handleRowMov(event,6,3805)" onmouseout="handleRowMou(6,3805)"/>
		<text xml:space="preserve">
			<tspan x="4" y="124" class="bifil">* Short (sho)</tspan>
		</text>
		<path d="M0.0,132L170,132L170,154L0.0,154L0.0,132z" class="box" onmousemove="handleRowMov(event,7,3805)" onmouseout="handleRowMou(7,3805)"/>
		<text xml:space="preserve">
			<tspan x="4" y="146" class="bifil">* Title (tit)</tspan>
		</text>
		<path d="M0.0,154L170,154L170,176L0.0,176L0.0,154z" class="box" onmousemove="handleRowMov(event,8,3805)" onmouseout="handleRowMou(8,3805)"/>
		<text xml:space="preserve">
			<tspan x="4" y="168" class="bifil">* Giturl (grl)</tspan>
		</text>
		<path d="M0.0,176L170,176L170,198L0.0,198L0.0,176z" class="box" onmousemove="handleRowMov(event,9,3805)" onmouseout="handleRowMou(9,3805)"/>
		<text xml:space="preserve">
			<tspan x="4" y="190" class="bifil">* Comment (cmt)</tspan>
		</text>
	</g>
	<g id="box3806" transform="translate(265,15)" onmousedown="handleBoxMdn(event,3806)">
		<path d="M0.0,0L170,0L170,22L0.0,22L0.0,0z" class="box"/>
		<path d="M150.5,3L165.5,3M150.5,18L165.5,18M154.5,6L160.5,6L160.5,12L154.5,12L154.5,6M162.5,9L165.5,9L165.5,15L159.5,15L159.5,14" class="icon" onclick="handleRowClick(event,10,3806,1)"/>
		<text xml:space="preserve">
			<tspan x="85" y="14" class="bihdr">ImeIRMPersonMProject</tspan>
		</text>
		<path d="M0.0,22L170,22L170,44L0.0,44L0.0,22z" class="box"/>
		<text xml:space="preserve">
			<tspan x="4" y="36" class="bi">* ref</tspan>
		</text>
		<path d="M0.0,44L170,44L170,66L0.0,66L0.0,44z" class="box"/>
		<text xml:space="preserve">
			<tspan x="4" y="58" class="bi">* x1Startd</tspan>
		</text>
		<path d="M0.0,66L170,66L170,88L0.0,88L0.0,66z" class="box"/>
		<text xml:space="preserve">
			<tspan x="4" y="80" class="bi">* x1Stopd</tspan>
		</text>
		<path d="M0.0,88L170,88L170,122L0.0,122L0.0,88z" class="box" onmousemove="handleRowMov(event,14,3806)" onmouseout="handleRowMou(14,3806)"/>
		<text xml:space="preserve">
			<tspan x="4" y="102" class="bifil">hintRefWznmMPerson (prs)</tspan>
			<tspan x="4" y="114" class="bi">* refWznmMPerson</tspan>
		</text>
		<path d="M0.0,122L170,122L170,144L0.0,144L0.0,122z" class="box" onmousemove="handleRowMov(event,15,3806)" onmouseout="handleRowMou(15,3806)"/>
		<text xml:space="preserve">
			<tspan x="4" y="136" class="bitbl">* refWznmMProject</tspan>
		</text>
		<path d="M0.0,144L170,144L170,166L0.0,166L0.0,144z" class="box" onmousemove="handleRowMov(event,16,3806)" onmouseout="handleRowMou(16,3806)"/>
		<text xml:space="preserve">
			<tspan x="4" y="158" class="bifil">* srefKFunction (fct)</tspan>
		</text>
	</g>
	<g id="box3807" transform="translate(265,211)" onmousedown="handleBoxMdn(event,3807)">
		<path d="M0.0,0L170,0L170,22L0.0,22L0.0,0z" class="box"/>
		<path d="M150.5,3L165.5,3M150.5,18L165.5,18M154.5,6L160.5,6L160.5,12L154.5,12L154.5,6M162.5,9L165.5,9L165.5,15L159.5,15L159.5,14" class="icon" onclick="handleRowClick(event,17,3807,1)"/>
		<path d="M3.5,3L18.5,3M3.5,18L18.5,18M7.5,6L13.5,6L13.5,12L7.5,12L7.5,6M15.5,9L18.5,9L18.5,15L12.5,15L12.5,14M4.5,6L5.5,6M4.5,9L5.5,9M4.5,12L5.5,12M4.5,15L10.5,15" class="icon" onclick="handleRowClick(event,17,3807,2)"/>
		<text xml:space="preserve">
			<tspan x="85" y="14" class="bihdr">ImeIMVersion</tspan>
		</text>
		<path d="M0.0,22L170,22L170,44L0.0,44L0.0,22z" class="box"/>
		<text xml:space="preserve">
			<tspan x="4" y="36" class="bi">* ref</tspan>
		</text>
		<path d="M0.0,44L170,44L170,66L0.0,66L0.0,44z" class="box" onmousemove="handleRowMov(event,19,3807)" onmouseout="handleRowMou(19,3807)"/>
		<text xml:space="preserve">
			<tspan x="4" y="58" class="bitbl">* grp</tspan>
		</text>
		<path d="M0.0,66L170,66L170,88L0.0,88L0.0,66z" class="box" onmousemove="handleRowMov(event,20,3807)" onmouseout="handleRowMou(20,3807)"/>
		<text xml:space="preserve">
			<tspan x="4" y="80" class="bitbl">* own</tspan>
		</text>
		<path d="M0.0,88L170,88L170,110L0.0,110L0.0,88z" class="box" onmousemove="handleRowMov(event,21,3807)" onmouseout="handleRowMou(21,3807)"/>
		<text xml:space="preserve">
			<tspan x="4" y="102" class="bitbl">* prjRefWznmMProject</tspan>
		</text>
		<path d="M0.0,110L170,110L170,132L0.0,132L0.0,110z" class="box" onmousemove="handleRowMov(event,22,3807)" onmouseout="handleRowMou(22,3807)"/>
		<text xml:space="preserve">
			<tspan x="4" y="124" class="bitbl">* prjNum</tspan>
		</text>
		<path d="M0.0,132L170,132L170,154L0.0,154L0.0,132z" class="box"/>
		<text xml:space="preserve">
			<tspan x="4" y="146" class="bi">* bvrRefWznmMVersion</tspan>
		</text>
		<path d="M0.0,154L170,154L170,176L0.0,176L0.0,154z" class="box" onmousemove="handleRowMov(event,24,3807)" onmouseout="handleRowMou(24,3807)"/>
		<text xml:space="preserve">
			<tspan x="4" y="168" class="bitbl">* refRLocale</tspan>
		</text>
		<path d="M0.0,176L170,176L170,198L0.0,198L0.0,176z" class="box" onmousemove="handleRowMov(event,25,3807)" onmouseout="handleRowMou(25,3807)"/>
		<text xml:space="preserve">
			<tspan x="4" y="190" class="bitbl">* refWznmMLocale</tspan>
		</text>
		<path d="M0.0,198L170,198L170,220L0.0,220L0.0,198z" class="box" onmousemove="handleRowMov(event,26,3807)" onmouseout="handleRowMou(26,3807)"/>
		<text xml:space="preserve">
			<tspan x="4" y="212" class="bifil">* Major (maj)</tspan>
		</text>
		<path d="M0.0,220L170,220L170,242L0.0,242L0.0,220z" class="box" onmousemove="handleRowMov(event,27,3807)" onmouseout="handleRowMou(27,3807)"/>
		<text xml:space="preserve">
			<tspan x="4" y="234" class="bifil">* Minor (min)</tspan>
		</text>
		<path d="M0.0,242L170,242L170,264L0.0,264L0.0,242z" class="box" onmousemove="handleRowMov(event,28,3807)" onmouseout="handleRowMou(28,3807)"/>
		<text xml:space="preserve">
			<tspan x="4" y="256" class="bifil">* Sub (sub)</tspan>
		</text>
		<path d="M0.0,264L170,264L170,286L0.0,286L0.0,264z" class="box" onmousemove="handleRowMov(event,29,3807)" onmouseout="handleRowMou(29,3807)"/>
		<text xml:space="preserve">
			<tspan x="4" y="278" class="bitbl">* refJState</tspan>
		</text>
		<path d="M0.0,286L170,286L170,320L0.0,320L0.0,286z" class="box" onmousemove="handleRowMov(event,30,3807)" onmouseout="handleRowMou(30,3807)"/>
		<text xml:space="preserve">
			<tspan x="4" y="300" class="bifil">srefIxVState (ste)</tspan>
			<tspan x="4" y="312" class="bi">* ixVState</tspan>
		</text>
		<path d="M0.0,320L170,320L170,354L0.0,354L0.0,320z" class="box" onmousemove="handleRowMov(event,31,3807)" onmouseout="handleRowMou(31,3807)"/>
		<text xml:space="preserve">
			<tspan x="4" y="334" class="bifil">srefsIxWDbmstype (dty)</tspan>
			<tspan x="4" y="346" class="bi">* ixWDbmstype</tspan>
		</text>
		<path d="M0.0,354L170,354L170,388L0.0,388L0.0,354z" class="box" onmousemove="handleRowMov(event,32,3807)" onmouseout="handleRowMou(32,3807)"/>
		<text xml:space="preserve">
			<tspan x="4" y="368" class="bifil">srefsIxWOption (opt)</tspan>
			<tspan x="4" y="380" class="bi">* ixWOption</tspan>
		</text>
		<path d="M0.0,388L170,388L170,410L0.0,410L0.0,388z" class="box" onmousemove="handleRowMov(event,33,3807)" onmouseout="handleRowMou(33,3807)"/>
		<text xml:space="preserve">
			<tspan x="4" y="402" class="bitbl">* refJ</tspan>
		</text>
		<path d="M0.0,410L170,410L170,432L0.0,432L0.0,410z" class="box" onmousemove="handleRowMov(event,34,3807)" onmouseout="handleRowMou(34,3807)"/>
		<text xml:space="preserve">
			<tspan x="4" y="424" class="bifil">* About1 (ab1)</tspan>
		</text>
		<path d="M0.0,432L170,432L170,454L0.0,454L0.0,432z" class="box" onmousemove="handleRowMov(event,35,3807)" onmouseout="handleRowMou(35,3807)"/>
		<text xml:space="preserve">
			<tspan x="4" y="446" class="bifil">* About2 (ab2)</tspan>
		</text>
		<path d="M0.0,454L170,454L170,476L0.0,476L0.0,454z" class="box" onmousemove="handleRowMov(event,36,3807)" onmouseout="handleRowMou(36,3807)"/>
		<text xml:space="preserve">
			<tspan x="4" y="468" class="bifil">* About3 (ab3)</tspan>
		</text>
		<path d="M0.0,476L170,476L170,498L0.0,498L0.0,476z" class="box" onmousemove="handleRowMov(event,37,3807)" onmouseout="handleRowMou(37,3807)"/>
		<text xml:space="preserve">
			<tspan x="4" y="490" class="bifil">* Comment (cmt)</tspan>
		</text>
	</g>
	<g id="box3808" transform="translate(515,235)" onmousedown="handleBoxMdn(event,3808)">
		<path d="M0.0,0L170,0L170,22L0.0,22L0.0,0z" class="box"/>
		<path d="M150.5,3L165.5,3M150.5,18L165.5,18M154.5,6L160.5,6L160.5,12L154.5,12L154.5,6M162.5,9L165.5,9L165.5,15L159.5,15L159.5,14" class="icon" onclick="handleRowClick(event,38,3808,1)"/>
		<text xml:space="preserve">
			<tspan x="85" y="14" class="bihdr">ImeIJMVersion</tspan>
		</text>
		<path d="M0.0,22L170,22L170,44L0.0,44L0.0,22z" class="box"/>
		<text xml:space="preserve">
			<tspan x="4" y="36" class="bi">* ref</tspan>
		</text>
		<path d="M0.0,44L170,44L170,66L0.0,66L0.0,44z" class="box" onmousemove="handleRowMov(event,40,3808)" onmouseout="handleRowMou(40,3808)"/>
		<text xml:space="preserve">
			<tspan x="4" y="58" class="bitbl">* refWznmMVersion</tspan>
		</text>
		<path d="M0.0,66L170,66L170,100L0.0,100L0.0,66z" class="box" onmousemove="handleRowMov(event,41,3808)" onmouseout="handleRowMou(41,3808)"/>
		<text xml:space="preserve">
			<tspan x="4" y="80" class="bifil">srefX1RefWznmMLocale (loc)</tspan>
			<tspan x="4" y="92" class="bi">* x1RefWznmMLocale</tspan>
		</text>
		<path d="M0.0,100L170,100L170,122L0.0,122L0.0,100z" class="box" onmousemove="handleRowMov(event,42,3808)" onmouseout="handleRowMou(42,3808)"/>
		<text xml:space="preserve">
			<tspan x="4" y="114" class="bifil">* About1 (ab1)</tspan>
		</text>
		<path d="M0.0,122L170,122L170,144L0.0,144L0.0,122z" class="box" onmousemove="handleRowMov(event,43,3808)" onmouseout="handleRowMou(43,3808)"/>
		<text xml:space="preserve">
			<tspan x="4" y="136" class="bifil">* About2 (ab2)</tspan>
		</text>
		<path d="M0.0,144L170,144L170,166L0.0,166L0.0,144z" class="box" onmousemove="handleRowMov(event,44,3808)" onmouseout="handleRowMou(44,3808)"/>
		<text xml:space="preserve">
			<tspan x="4" y="158" class="bifil">* About3 (ab3)</tspan>
		</text>
	</g>
	<g id="box3809" transform="translate(515,423)" onmousedown="handleBoxMdn(event,3809)">
		<path d="M0.0,0L170,0L170,22L0.0,22L0.0,0z" class="box"/>
		<path d="M150.5,3L165.5,3M150.5,18L165.5,18M154.5,6L160.5,6L160.5,12L154.5,12L154.5,6M162.5,9L165.5,9L165.5,15L159.5,15L159.5,14" class="icon" onclick="handleRowClick(event,45,3809,1)"/>
		<text xml:space="preserve">
			<tspan x="85" y="14" class="bihdr">ImeIJMVersionState</tspan>
		</text>
		<path d="M0.0,22L170,22L170,44L0.0,44L0.0,22z" class="box"/>
		<text xml:space="preserve">
			<tspan x="4" y="36" class="bi">* ref</tspan>
		</text>
		<path d="M0.0,44L170,44L170,66L0.0,66L0.0,44z" class="box" onmousemove="handleRowMov(event,47,3809)" onmouseout="handleRowMou(47,3809)"/>
		<text xml:space="preserve">
			<tspan x="4" y="58" class="bitbl">* refWznmMVersion</tspan>
		</text>
		<path d="M0.0,66L170,66L170,88L0.0,88L0.0,66z" class="box" onmousemove="handleRowMov(event,48,3809)" onmouseout="handleRowMou(48,3809)"/>
		<text xml:space="preserve">
			<tspan x="4" y="80" class="bitbl">* x1Start</tspan>
		</text>
		<path d="M0.0,88L170,88L170,122L0.0,122L0.0,88z" class="box" onmousemove="handleRowMov(event,49,3809)" onmouseout="handleRowMou(49,3809)"/>
		<text xml:space="preserve">
			<tspan x="4" y="102" class="bifil">srefIxVState (ste)</tspan>
			<tspan x="4" y="114" class="bi">* ixVState</tspan>
		</text>
	</g>
	<g id="box3810" transform="translate(515,568)" onmousedown="handleBoxMdn(event,3810)">
		<path d="M0.0,0L170,0L170,22L0.0,22L0.0,0z" class="box"/>
		<path d="M150.5,3L165.5,3M150.5,18L165.5,18M154.5,6L160.5,6L160.5,12L154.5,12L154.5,6M162.5,9L165.5,9L165.5,15L159.5,15L159.5,14" class="icon" onclick="handleRowClick(event,50,3810,1)"/>
		<text xml:space="preserve">
			<tspan x="85" y="14" class="bihdr">ImeIRMLocaleMVersion</tspan>
		</text>
		<path d="M0.0,22L170,22L170,44L0.0,44L0.0,22z" class="box"/>
		<text xml:space="preserve">
			<tspan x="4" y="36" class="bi">* ref</tspan>
		</text>
		<path d="M0.0,44L170,44L170,78L0.0,78L0.0,44z" class="box" onmousemove="handleRowMov(event,52,3810)" onmouseout="handleRowMou(52,3810)"/>
		<text xml:space="preserve">
			<tspan x="4" y="58" class="bifil">srefRefWznmMLocale (loc)</tspan>
			<tspan x="4" y="70" class="bi">* refWznmMLocale</tspan>
		</text>
		<path d="M0.0,78L170,78L170,100L0.0,100L0.0,78z" class="box" onmousemove="handleRowMov(event,53,3810)" onmouseout="handleRowMou(53,3810)"/>
		<text xml:space="preserve">
			<tspan x="4" y="92" class="bitbl">* refWznmMVersion</tspan>
		</text>
	</g>
</svg>
